<svg version="1.1" id="Layer_1" xmlns="http://www.w3.org/2000/svg" xmlns:xlink="http://www.w3.org/1999/xlink" x="0px" y="0px"
	 width="100%" viewBox="0 0 500 500" enable-background="new 0 0 500 500" xml:space="preserve">
<path fill="#F3E6E3" opacity="1.000000" stroke="none" 
	d="
M268.000000,501.000000 
	C178.666687,501.000000 89.833374,501.000000 1.000048,501.000000 
	C1.000032,334.333405 1.000032,167.666794 1.000016,1.000137 
	C167.666565,1.000091 334.333130,1.000091 500.999756,1.000046 
	C500.999847,167.666519 500.999847,334.333038 500.999939,500.999786 
	C423.500000,501.000000 346.000000,501.000000 268.000000,501.000000 
M465.343262,312.659149 
	C465.889740,305.241943 466.928253,297.823120 466.903656,290.407806 
	C466.730927,238.296982 466.396118,186.186447 465.993164,134.076752 
	C465.792480,108.121971 465.316010,82.169411 465.012238,56.215275 
	C464.914917,47.904434 464.104950,47.035038 455.925079,46.996258 
	C388.320618,46.675739 320.716187,46.088757 253.111755,46.089462 
	C185.174500,46.090172 117.237312,46.693802 49.299789,46.952702 
	C44.893810,46.969490 42.990562,48.541321 42.938972,53.096710 
	C42.792183,66.057533 42.219055,79.013237 42.042095,91.974068 
	C41.628605,122.258568 41.050476,152.545242 41.085670,182.830399 
	C41.136349,226.444229 41.601440,270.058289 42.088676,313.670044 
	C42.150997,319.248169 43.407131,324.813019 44.026501,331.117523 
	C43.970802,334.401947 43.814697,337.688232 43.875725,340.970490 
	C44.268837,362.114197 44.698273,383.257294 45.139458,404.400085 
	C45.340797,414.048889 45.657753,423.695709 45.790874,433.345245 
	C45.833107,436.406677 46.962891,437.928406 50.146561,438.103424 
	C59.939140,438.641693 69.725021,439.878448 79.511391,439.857513 
	C135.314804,439.738068 191.117828,439.367493 246.920395,438.993408 
	C257.902802,438.919800 268.885986,438.551697 279.863007,438.156708 
	C316.440308,436.840576 353.023132,435.635559 389.587677,434.021637 
	C412.842255,432.995178 436.070282,431.353271 459.305511,429.911346 
	C465.068420,429.553650 466.180725,428.222473 466.162109,422.467743 
	C466.050079,387.811218 465.942474,353.154633 465.760986,318.498444 
	C465.751862,316.753296 465.071136,315.011688 465.343262,312.659149 
z"/>
<path fill="#FEFEFE" opacity="1.000000" stroke="none" 
	d="
M44.110214,330.384003 
	C43.407131,324.813019 42.150997,319.248169 42.088676,313.670044 
	C41.601440,270.058289 41.136349,226.444229 41.085670,182.830399 
	C41.050476,152.545242 41.628605,122.258568 42.042095,91.974068 
	C42.219055,79.013237 42.792183,66.057533 42.938972,53.096710 
	C42.990562,48.541321 44.893810,46.969490 49.299789,46.952702 
	C117.237312,46.693802 185.174500,46.090172 253.111755,46.089462 
	C320.716187,46.088757 388.320618,46.675739 455.925079,46.996258 
	C464.104950,47.035038 464.914917,47.904434 465.012238,56.215275 
	C465.316010,82.169411 465.792480,108.121971 465.993164,134.076752 
	C466.396118,186.186447 466.730927,238.296982 466.903656,290.407806 
	C466.928253,297.823120 465.889740,305.241943 464.631836,312.904663 
	C448.172699,309.526215 432.483368,310.053680 417.034637,314.519348 
	C396.902466,320.338898 376.849182,326.439606 356.829437,332.637299 
	C342.086456,337.201447 326.997253,339.834961 311.642731,339.688141 
	C292.483704,339.504883 273.993103,335.354492 256.504883,327.333954 
	C238.507812,319.079987 220.711838,310.373566 202.577454,302.437286 
	C187.907150,296.017029 172.695267,291.427429 156.403763,290.836182 
	C136.721786,290.121857 118.422943,295.609222 100.835419,303.245911 
	C81.621651,311.588684 62.993584,321.280304 44.110214,330.384003 
M365.838898,233.410233 
	C383.481384,223.379028 391.290497,202.645691 383.791229,185.746475 
	C377.231140,170.963623 361.387695,162.396393 346.411774,165.533844 
	C326.091095,169.791031 315.623260,182.042999 314.837677,200.252640 
	C313.883087,222.379669 339.967407,246.989441 365.838898,233.410233 
z"/>
<path fill="#9BB98E" opacity="1.000000" stroke="none" 
	d="
M44.068359,330.750763 
	C62.993584,321.280304 81.621651,311.588684 100.835419,303.245911 
	C118.422943,295.609222 136.721786,290.121857 156.403763,290.836182 
	C172.695267,291.427429 187.907150,296.017029 202.577454,302.437286 
	C220.711838,310.373566 238.507812,319.079987 256.504883,327.333954 
	C273.993103,335.354492 292.483704,339.504883 311.642731,339.688141 
	C326.997253,339.834961 342.086456,337.201447 356.829437,332.637299 
	C376.849182,326.439606 396.902466,320.338898 417.034637,314.519348 
	C432.483368,310.053680 448.172699,309.526215 464.311737,313.209320 
	C465.071136,315.011688 465.751862,316.753296 465.760986,318.498444 
	C465.942474,353.154633 466.050079,387.811218 466.162109,422.467743 
	C466.180725,428.222473 465.068420,429.553650 459.305511,429.911346 
	C436.070282,431.353271 412.842255,432.995178 389.587677,434.021637 
	C353.023132,435.635559 316.440308,436.840576 279.863007,438.156708 
	C268.885986,438.551697 257.902802,438.919800 246.920395,438.993408 
	C191.117828,439.367493 135.314804,439.738068 79.511391,439.857513 
	C69.725021,439.878448 59.939140,438.641693 50.146561,438.103424 
	C46.962891,437.928406 45.833107,436.406677 45.790874,433.345245 
	C45.657753,423.695709 45.340797,414.048889 45.139458,404.400085 
	C44.698273,383.257294 44.268837,362.114197 43.875725,340.970490 
	C43.814697,337.688232 43.970802,334.401947 44.068359,330.750763 
z"/>
<path fill="#FECB63" opacity="1.000000" stroke="none" 
	d="
M365.517700,233.601593 
	C339.967407,246.989441 313.883087,222.379669 314.837677,200.252640 
	C315.623260,182.042999 326.091095,169.791031 346.411774,165.533844 
	C361.387695,162.396393 377.231140,170.963623 383.791229,185.746475 
	C391.290497,202.645691 383.481384,223.379028 365.517700,233.601593 
z"/>
</svg>